<svg width="512" height="512" viewBox="0 0 512 512" fill="none" xmlns="http://www.w3.org/2000/svg">
  <defs>
    <linearGradient id="bgGradient" x1="76" y1="48" x2="436" y2="456" gradientUnits="userSpaceOnUse">
      <stop stop-color="#2E1F6B"/>
      <stop offset="0.5" stop-color="#4446A7"/>
      <stop offset="1" stop-color="#242A7A"/>
    </linearGradient>
    <radialGradient id="innerGlow" cx="0" cy="0" r="1" gradientUnits="userSpaceOnUse" gradientTransform="translate(196 156) rotate(48) scale(270 270)">
      <stop stop-color="#FFFFFF" stop-opacity="0.14"/>
      <stop offset="1" stop-color="#FFFFFF" stop-opacity="0"/>
    </radialGradient>
    <linearGradient id="letterAccent" x1="190" y1="126" x2="321" y2="299" gradientUnits="userSpaceOnUse">
      <stop stop-color="#FFFFFF"/>
      <stop offset="0.5" stop-color="#EAF0FF"/>
      <stop offset="1" stop-color="#C6D3FF"/>
    </linearGradient>
  </defs>

  <circle cx="256" cy="256" r="236" fill="url(#bgGradient)"/>
  <circle cx="256" cy="256" r="210" fill="url(#innerGlow)"/>
  <circle cx="256" cy="256" r="210" stroke="#F3F6FF" stroke-opacity="0.78" stroke-width="18"/>

  <circle cx="256" cy="256" r="172" fill="#F4F6FF" fill-opacity="0.14"/>

  <g>
    <path d="M158 175V312H188V214L250 301V175H220V270L158 175Z" fill="url(#letterAccent)"/>
    <path d="M271 175H298L351 312H320L299 267H223L203 312H172L271 175ZM247 238L277 283H228L247 238Z" fill="url(#letterAccent)"/>
  </g>

  <text x="256" y="366" text-anchor="middle" font-size="52" font-weight="800" letter-spacing="10" fill="#F0F5FF" font-family="Segoe UI, Arial, sans-serif">JOURNAL</text>
</svg>
